# xmcd CD database file
#
# Track frame offsets:
#	150
#	18770
#	37085
#	53302
#	70127
#	88320
#	106272
#	120557
#	136600
#	152225
#
# Disc length: 2250 seconds
#
# Revision: 0
# Processed by: cddbd v1.5.2PL0 Copyright (c) Steve Scherf et al.
# Submitted via: CDex 1.51
#
DISCID=7608c80a
DTITLE=Varous Artists - All American Country - Road Trip - 3
DYEAR=2006
DGENRE=Country
TTITLE0=(Get Your Kicks on) Route 66 - Asleep At The Wheel
TTITLE1=My Home's In Alabama - Alabama
TTITLE2=The Devil Went Down To Georgia - Charlie Daniels Band
TTITLE3=Wheels - Restless Hart
TTITLE4=Sunday In The South - Shenandoah
TTITLE5=Maybe It Was Memphis - Pam Tillis
TTITLE6=Tennessee Flat Top Box - Rosanne Cash
TTITLE7=Oklahoma Borderline - Vince Gill
TTITLE8=Miami, My Ami - Keith Whitley
TTITLE9=Backroads - Ricky Van Shelton
EXTD=YEAR: 2006
EXTT0=
EXTT1=
EXTT2=
EXTT3=
EXTT4=
EXTT5=
EXTT6=
EXTT7=
EXTT8=
EXTT9=
PLAYORDER=
